<?xml version="1.0" encoding="UTF-8" standalone="no"?>
<!DOCTYPE svg PUBLIC "-//W3C//DTD SVG 1.1//EN" "http://www.w3.org/Graphics/SVG/1.1/DTD/svg11.dtd">
<svg version="1.1" xmlns="http://www.w3.org/2000/svg" xmlns:xlink="http://www.w3.org/1999/xlink" preserveAspectRatio="xMidYMid meet" viewBox="288.72 248.5049504950495 34.27999999999997 41.00000000000006" width="30.28" height="37"><defs><path d="M309.57 252.87C308.9 250.85 307.05 249.5 304.86 249.5C302.67 249.5 300.82 250.85 300.15 252.87C299.44 252.87 293.79 252.87 293.08 252.87C291.23 252.87 289.72 254.38 289.72 256.23C289.72 258.92 289.72 280.45 289.72 283.14C289.72 284.99 291.23 286.5 293.08 286.5C295.44 286.5 314.28 286.5 316.64 286.5C318.49 286.5 320 284.99 320 283.14C320 280.45 320 258.92 320 256.23C320 254.38 318.49 252.87 316.64 252.87C316.64 252.87 316.64 252.87 316.64 252.87C312.4 252.87 310.04 252.87 309.57 252.87ZM306.54 254.55C306.54 255.56 305.87 256.23 304.86 256.23C303.85 256.23 303.18 255.56 303.18 254.55C303.18 253.54 303.85 252.87 304.86 252.87C304.86 252.87 304.86 252.87 304.86 252.87C305.98 253.32 306.54 253.88 306.54 254.55ZM293.08 283.14L293.08 256.23L296.45 256.23L296.45 261.28L313.27 261.28L313.27 256.23L316.64 256.23L316.64 283.14L316.64 283.14L293.08 283.14Z" id="d3pE49hUv8"></path></defs><g><g><use xlink:href="#d3pE49hUv8" opacity="1" fill="#008fff" fill-opacity="1"></use><g><use xlink:href="#d3pE49hUv8" opacity="1" fill-opacity="0" stroke="#000000" stroke-width="1" stroke-opacity="0"></use></g></g></g></svg>